<?xml version="1.0" encoding="utf-8"?>
<!-- Generator: Adobe Illustrator 22.0.1, SVG Export Plug-In . SVG Version: 6.00 Build 0)  -->
<svg version="1.1" id="Calque_1" xmlns="http://www.w3.org/2000/svg" xmlns:xlink="http://www.w3.org/1999/xlink" x="0px" y="0px"
	 viewBox="0 0 24.3 19.7" style="enable-background:new 0 0 24.3 19.7;" xml:space="preserve">
<path d="M24.1,2.4c-0.9,0.4-1.8,0.7-2.8,0.8c1-0.6,1.8-1.6,2.2-2.7c-1,0.6-2,1-3.1,1.2c-0.9-1-2.2-1.6-3.6-1.6c-3.2,0-5.5,3-4.8,6
	C7.9,6,4.2,4,1.8,1C0.5,3.2,1.1,6.1,3.3,7.6C2.5,7.6,1.8,7.3,1.1,7c-0.1,2.3,1.6,4.4,3.9,4.9c-0.7,0.2-1.5,0.2-2.2,0.1
	c0.6,2,2.4,3.4,4.6,3.4c-2.1,1.6-4.7,2.3-7.3,2c2.2,1.4,4.8,2.2,7.5,2.2c9.1,0,14.3-7.7,14-14.6C22.6,4.3,23.5,3.4,24.1,2.4z"/>
</svg>
